# xmcd
#
# Track frame offsets:
#	150
#	10346
#	27222
#	40114
#	64834
#	101006
#	138337
#	167385
#	182199
#	205676
#	250299
#
# Disc length: 3586 seconds
#
# Revision: 0
# Processed by: cddbd v1.5.2PL0 Copyright (c) Steve Scherf et al.
# Submitted via: EasyCDDAExtractor 8.2.4.1
#
DISCID=8d0e000b
DTITLE=Skibiñski Winder Super Session
DYEAR=2006
DGENRE=Blues
TTITLE0=Witaj
TTITLE1=Rock me baby
TTITLE2=Skibaczek
TTITLE3=Albo cacy albo lili
TTITLE4=Bluesowanie
TTITLE5=Krakowiaczek
TTITLE6=Thrill is gone
TTITLE7=I feel good
TTITLE8=Pewnie ciezki znow bedzie dzien
TTITLE9=Niewinni
TTITLE10=Zegnam was
EXTD=
EXTT0=
EXTT1=
EXTT2=
EXTT3=
EXTT4=
EXTT5=
EXTT6=
EXTT7=
EXTT8=
EXTT9=
EXTT10=
PLAYORDER=
